<?xml version="1.0" standalone="no"?>
<!DOCTYPE svg PUBLIC "-//W3C//DTD SVG 20010904//EN"
 "http://www.w3.org/TR/2001/REC-SVG-20010904/DTD/svg10.dtd">
<svg version="1.0" xmlns="http://www.w3.org/2000/svg"
 width="500.000000pt" height="500.000000pt" viewBox="0 0 500.000000 500.000000"
 preserveAspectRatio="xMidYMid meet">
<metadata>
Created by potrace 1.16, written by Peter Selinger 2001-2019
</metadata>
<g transform="translate(0.000000,500.000000) scale(0.100000,-0.100000)"
fill="#000000" stroke="none">
<path d="M2260 4988 c-489 -51 -940 -234 -1330 -542 -41 -33 -133 -118 -205
-190 -393 -396 -626 -875 -707 -1451 -16 -116 -16 -494 0 -610 68 -485 240
-890 540 -1270 73 -92 277 -296 372 -371 453 -358 1008 -554 1570 -554 562 0
1117 196 1570 554 95 75 299 279 372 371 300 380 472 785 540 1270 7 50 13
186 13 305 0 119 -6 255 -13 305 -70 503 -253 920 -570 1303 -311 376 -761
665 -1248 802 -274 77 -627 107 -904 78z m560 -1062 c290 -57 478 -149 623
-306 107 -115 157 -258 157 -449 0 -207 -74 -367 -231 -498 -58 -47 -186 -114
-259 -134 l-45 -12 80 -19 c44 -10 116 -36 160 -57 381 -185 530 -597 350
-968 -37 -75 -61 -109 -128 -176 -125 -128 -236 -188 -467 -250 l-115 -32
-848 -3 -848 -3 3 38 3 38 83 7 c153 13 233 48 281 123 56 89 56 83 56 1265 0
1145 0 1152 -45 1240 -36 70 -95 105 -209 126 -42 7 -97 13 -123 14 l-48 0 0
41 0 40 743 -4 c641 -3 754 -6 827 -21z"/>
<path d="M2320 3804 c-25 -2 -75 -9 -112 -15 l-68 -11 0 -568 0 -568 88 -16
c276 -50 419 -37 582 52 174 95 290 296 290 502 0 109 -16 183 -61 279 -72
155 -227 280 -404 326 -61 16 -233 26 -315 19z"/>
<path d="M2182 2443 l-42 -4 2 -607 3 -607 90 -23 c137 -35 321 -40 450 -13
288 59 470 248 505 522 11 88 0 210 -26 287 -52 155 -195 299 -367 369 -132
54 -240 74 -412 78 -88 1 -179 1 -203 -2z"/>
</g>
</svg>
