<?xml version="1.0" standalone="no"?>
<!DOCTYPE svg PUBLIC "-//W3C//DTD SVG 20010904//EN"
 "http://www.w3.org/TR/2001/REC-SVG-20010904/DTD/svg10.dtd">
<svg version="1.0" xmlns="http://www.w3.org/2000/svg"
 width="300.000000pt" height="300.000000pt" viewBox="0 0 300.000000 300.000000"
 preserveAspectRatio="xMidYMid meet">
<metadata>
Created by potrace 1.10, written by Peter Selinger 2001-2011
</metadata>
<g transform="translate(0.000000,300.000000) scale(0.050000,-0.050000)"
fill="#000000" stroke="none">
<path d="M0 3000 l0 -3000 3000 0 3000 0 0 3000 0 3000 -3000 0 -3000 0 0
-3000z m3540 2782 c2214 -442 3044 -3194 1445 -4788 -1503 -1499 -4054 -874
-4703 1152 -652 2038 1155 4056 3258 3636z"/>
<path d="M1560 4735 c0 -46 9 -50 124 -62 168 -18 257 -65 306 -163 62 -125
62 -2715 0 -2839 -52 -104 -141 -153 -301 -166 -120 -10 -129 -14 -129 -59 l0
-49 985 8 c1087 8 1127 13 1384 151 704 381 585 1348 -191 1552 -85 22 -100
31 -68 43 782 286 785 1214 5 1505 -267 100 -354 108 -1260 118 l-855 10 0
-49z m1656 -179 c399 -147 574 -595 381 -973 -156 -304 -451 -417 -890 -341
l-127 22 0 657 0 657 85 11 c243 32 399 22 551 -33z m-58 -1548 c729 -162 861
-1104 192 -1369 -143 -57 -560 -70 -695 -22 l-75 26 0 697 0 698 95 6 c148 9
343 -5 483 -36z"/>
</g>
</svg>
