<?xml version="1.0" standalone="no"?>
<!DOCTYPE svg PUBLIC "-//W3C//DTD SVG 20010904//EN"
 "http://www.w3.org/TR/2001/REC-SVG-20010904/DTD/svg10.dtd">
<svg version="1.0" xmlns="http://www.w3.org/2000/svg"
 width="900.000000pt" height="900.000000pt" viewBox="0 0 900.000000 900.000000"
 preserveAspectRatio="xMidYMid meet">
<metadata>
Created by potrace 1.10, written by Peter Selinger 2001-2011
</metadata>
<g transform="translate(0.000000,900.000000) scale(0.100000,-0.100000)"
fill="#000000" stroke="none">
<path d="M4123 8988 c1 -9 -22 -15 -78 -21 -77 -7 -195 -22 -300 -37 -83 -13
-164 -30 -330 -70 -27 -7 -66 -16 -85 -21 -19 -4 -66 -17 -105 -29 -38 -12
-83 -25 -100 -30 -58 -16 -223 -76 -290 -105 -16 -7 -50 -20 -75 -30 -104 -41
-338 -153 -435 -209 -33 -19 -78 -44 -99 -56 -21 -12 -78 -47 -125 -78 -47
-31 -94 -61 -103 -67 -62 -38 -284 -198 -298 -215 -3 -4 -27 -24 -55 -46 -194
-153 -494 -452 -636 -634 -23 -30 -45 -57 -49 -60 -17 -14 -178 -237 -215
-298 -5 -9 -22 -33 -37 -53 -16 -20 -28 -39 -28 -42 0 -3 -12 -25 -27 -49 -45
-69 -52 -82 -63 -103 -6 -11 -26 -47 -44 -80 -93 -166 -209 -417 -271 -585 -7
-19 -19 -53 -27 -75 -25 -67 -39 -108 -54 -160 -8 -27 -21 -72 -30 -100 -8
-27 -19 -66 -23 -85 -21 -87 -34 -139 -47 -186 -8 -28 -14 -61 -14 -73 0 -12
-6 -50 -14 -84 -16 -67 -39 -233 -56 -392 -13 -130 -13 -721 0 -850 6 -55 16
-134 22 -175 6 -41 14 -100 18 -130 11 -89 28 -171 70 -345 7 -27 16 -66 21
-85 4 -19 17 -66 29 -105 12 -38 25 -83 30 -100 11 -40 24 -77 77 -220 8 -22
21 -53 28 -70 7 -16 23 -55 35 -85 45 -111 139 -306 206 -425 18 -33 38 -69
44 -80 6 -11 19 -33 30 -50 11 -16 24 -39 30 -50 17 -32 32 -55 85 -133 28
-41 55 -81 60 -90 30 -49 200 -269 278 -361 150 -175 377 -397 572 -558 141
-117 477 -349 590 -409 17 -8 57 -31 90 -49 114 -63 342 -173 435 -210 25 -10
59 -23 75 -30 28 -12 61 -25 153 -59 20 -8 64 -22 97 -31 33 -10 76 -23 95
-30 60 -21 143 -44 315 -85 71 -17 190 -40 260 -49 33 -5 94 -13 135 -19 183
-27 277 -32 591 -32 315 0 430 6 609 32 41 6 100 14 130 18 89 11 171 28 345
70 28 7 66 16 85 21 19 4 59 15 87 24 29 9 74 22 100 30 229 67 609 229 818
350 33 19 67 38 75 42 30 14 166 98 230 142 36 25 85 58 110 75 292 196 647
525 907 841 88 108 213 279 258 353 6 9 22 33 36 52 14 19 29 42 33 50 7 16
18 35 57 95 14 22 29 47 32 55 4 8 17 31 28 50 47 76 173 336 219 450 12 30
28 69 35 85 31 72 85 223 110 305 7 25 20 70 30 100 9 30 20 73 25 95 5 22 14
60 20 85 38 144 58 244 70 348 5 40 12 76 15 81 3 5 10 67 15 138 8 91 15 131
25 139 13 10 15 66 15 373 0 283 -3 360 -12 358 -9 -1 -15 22 -21 78 -12 124
-37 304 -53 372 -8 34 -14 72 -14 84 0 12 -6 45 -14 73 -13 47 -26 99 -47 186
-4 19 -15 60 -25 90 -9 30 -22 75 -29 100 -37 123 -120 340 -192 500 -34 75
-135 275 -167 330 -14 25 -30 54 -36 65 -6 11 -19 34 -30 50 -11 17 -24 39
-30 50 -17 32 -32 55 -85 133 -28 41 -54 81 -60 90 -19 31 -159 217 -208 277
-219 266 -507 544 -763 738 -92 69 -321 227 -330 227 -1 0 -22 13 -46 29 -24
16 -61 39 -83 51 -22 12 -67 37 -100 56 -148 84 -404 201 -590 271 -22 8 -55
21 -73 29 -18 8 -39 14 -47 14 -8 0 -29 6 -47 14 -18 7 -60 21 -93 31 -33 10
-80 23 -105 31 -25 7 -72 19 -105 27 -33 8 -82 21 -110 27 -27 7 -70 16 -95
20 -25 4 -72 12 -105 18 -119 23 -252 41 -326 46 -83 6 -112 13 -103 27 3 5
-150 9 -365 9 -292 0 -370 -3 -368 -12z m767 -1871 c36 -9 81 -16 100 -17 59
0 359 -73 438 -106 18 -8 39 -14 47 -14 23 0 138 -53 260 -120 230 -126 460
-365 539 -560 48 -119 67 -192 85 -325 25 -185 -3 -474 -57 -581 -5 -11 -26
-53 -46 -94 -45 -91 -50 -100 -102 -170 -137 -182 -364 -338 -620 -424 l-67
-23 43 -7 c63 -10 130 -31 260 -81 244 -94 469 -273 613 -488 146 -218 207
-416 207 -672 0 -343 -129 -648 -371 -880 -69 -66 -191 -165 -203 -165 -3 0
-22 -11 -42 -25 -59 -40 -303 -155 -329 -155 -8 0 -29 -6 -47 -14 -67 -29
-248 -68 -423 -91 -106 -14 -283 -15 -1485 -13 l-1365 3 -3 48 c-4 65 8 77 77
77 72 0 199 17 276 37 102 27 166 62 231 129 69 70 102 155 128 324 15 95 16
284 14 1940 -3 1685 -5 1842 -21 1919 -19 92 -39 156 -64 204 -20 39 -128 147
-147 147 -8 0 -27 6 -43 14 -48 24 -126 46 -163 46 -19 0 -53 5 -74 11 -22 6
-78 14 -125 17 l-86 7 0 55 0 55 40 6 c22 4 585 6 1250 4 1071 -2 1217 -4
1275 -18z"/>
<path d="M4030 6875 c-41 -8 -95 -18 -120 -22 -43 -8 -45 -10 -52 -48 -8 -45
-9 -1729 -1 -1843 3 -42 10 -75 17 -76 235 -62 528 -91 712 -72 127 14 151 20
279 68 284 108 518 361 599 648 56 200 54 391 -6 610 -12 41 -24 82 -28 90 -4
8 -18 38 -31 65 -57 127 -172 267 -299 368 -67 53 -278 167 -310 167 -7 0 -33
6 -59 14 -112 35 -144 39 -381 42 -182 2 -264 -1 -320 -11z"/>
<path d="M3933 4541 c-29 -3 -58 -12 -65 -19 -19 -19 -24 -2040 -5 -2066 13
-18 111 -50 202 -65 28 -5 77 -15 110 -22 40 -9 138 -13 290 -13 237 -1 250 1
435 50 108 29 194 69 310 144 135 87 270 234 340 370 12 25 29 57 36 72 8 14
14 35 14 45 0 10 4 23 10 29 5 5 14 32 20 59 5 28 15 75 21 105 14 70 7 378
-10 445 -20 77 -70 205 -102 258 -16 26 -29 50 -29 53 0 3 -20 32 -45 63 -58
77 -167 177 -260 240 -123 83 -342 180 -460 202 -22 4 -60 12 -85 18 -140 30
-183 34 -420 36 -140 2 -279 0 -307 -4z"/>
</g>
</svg>
